<?xml version="1.0" encoding="UTF-8" standalone="no"?>
<!DOCTYPE svg PUBLIC "-//W3C//DTD SVG 1.1//EN" "http://www.w3.org/Graphics/SVG/1.1/DTD/svg11.dtd">
<svg width="100%" height="100%" viewBox="0 0 36 36" version="1.1" xmlns="http://www.w3.org/2000/svg" xmlns:xlink="http://www.w3.org/1999/xlink" xml:space="preserve" xmlns:serif="http://www.serif.com/" style="fill-rule:evenodd;clip-rule:evenodd;stroke-linejoin:round;stroke-miterlimit:2;">
    <g transform="matrix(0.0351562,0,0,0.0351562,0,0)">
        <rect x="0" y="0" width="1024" height="1024" style="fill:rgb(186,12,47);"/>
    </g>
    <g transform="matrix(0.101563,0,0,0.101563,-10.1546,-12.2291)">
        <g transform="matrix(1,0,0,1,323.548,457.685)">
            <path d="M0,-320.093L-0.104,-320.093C-2.87,-320.051 -5.353,-318.385 -6.438,-315.841C-6.506,-315.684 -11.082,-305.069 -17.719,-295.114C-18.446,-296.46 -19.349,-297.794 -20.453,-299.093C-21.807,-300.685 -23.77,-301.56 -25.788,-301.56C-26.509,-301.56 -27.237,-301.448 -27.948,-301.218C-30.562,-300.369 -32.429,-298.074 -32.741,-295.361C-33.804,-292.168 -42.987,-282.591 -49.709,-275.58C-62.995,-261.725 -79.376,-244.643 -86.417,-228.253C-95.622,-222.984 -103.305,-218.003 -112.168,-211.568C-155.48,-201.45 -179.265,-181.047 -180.267,-180.174C-182.522,-178.209 -183.28,-175.028 -182.152,-172.257C-181.075,-169.61 -178.503,-167.896 -175.671,-167.896C-175.54,-167.896 -175.408,-167.899 -175.275,-167.907C-175.233,-167.909 -170.868,-168.148 -164.143,-168.148C-129.983,-168.148 -91.527,-162.056 -86.039,-144.956C-83.084,-135.751 -82.039,-125.56 -80.828,-113.76C-77.93,-85.52 -74.323,-50.374 -42.471,-3.09C-41.156,-1.138 -38.968,0 -36.667,0C-36.265,0 -35.86,-0.035 -35.456,-0.106C-32.733,-0.584 -30.546,-2.618 -29.875,-5.3C-23.107,-32.321 -5.346,-57.824 20.139,-77.113C41,-92.903 65.705,-103.234 83.078,-103.431C85.006,-103.453 86.84,-104.269 88.146,-105.687C89.453,-107.105 90.116,-108.999 89.981,-110.923C88.411,-133.21 81.401,-155.276 75.691,-170.079C76.268,-170.193 76.837,-170.381 77.387,-170.647C80.436,-172.123 81.99,-175.572 81.076,-178.835C81.034,-178.987 76.681,-194.236 64.634,-211.259C51.623,-229.646 34.864,-242.358 16.056,-248.136C15.565,-251.113 15.765,-258.909 19.088,-270.875C22.403,-282.814 27.355,-293.083 31.703,-297.035C33.843,-298.981 34.566,-302.041 33.523,-304.739C32.48,-307.436 29.886,-309.215 26.994,-309.215C23.581,-309.215 17.459,-307.654 10.65,-303.77C9.744,-307.652 8.302,-311.808 6.355,-316.027C5.21,-318.508 2.727,-320.093 0,-320.093M-0.001,-313.093C4.834,-302.617 5.64,-293.754 4.028,-290.128C13.295,-298.991 23.368,-302.215 26.994,-302.215C13.698,-290.128 3.402,-244.961 12.043,-242.022C12.066,-242.014 12.088,-242.006 12.111,-241.998C55.675,-229.885 72.63,-183.041 74.336,-176.947C71.112,-181.379 61.645,-184.968 61.645,-184.968C61.645,-184.968 80.38,-147.599 82.998,-110.43C47.543,-110.028 -20.549,-71.348 -36.666,-7.001C-80.985,-72.793 -68.898,-114.46 -79.374,-147.095C-87.456,-172.273 -140.376,-175.148 -164.143,-175.148C-171.182,-175.148 -175.668,-174.896 -175.668,-174.896C-175.668,-174.896 -152.199,-195.343 -109.203,-205.068C-98.674,-212.772 -90.293,-218.046 -80.836,-223.372C-80.835,-223.373 -80.833,-223.378 -80.833,-223.378C-70.51,-251.045 -26.593,-284.084 -25.787,-294.559C-18.937,-286.501 -23.772,-277.235 -23.772,-277.235C-10.477,-288.516 -0.001,-313.093 -0.001,-313.093" style="fill:white;fill-rule:nonzero;"/>
        </g>
        <g transform="matrix(1,0,0,1,218.589,346.182)">
            <path d="M0,-93.747L24.98,-110.331L38.478,-130.678L69.905,-163.717L76.25,-168.753L76.25,-159.486L91.057,-171.372L103.547,-185.071L106.368,-174.393L121.678,-179.228L117.851,-169.559L109.995,-141.8L111.203,-132.29L127.722,-123.627L151.695,-106.907C151.695,-106.907 168.618,-83.236 169.02,-82.783C169.423,-82.329 171.639,-75.681 171.639,-75.681L163.889,-75.681L169.222,-52.715L178.237,-33.779L183.122,-1.747L166.401,1.274L129.333,19.002L89.516,54.055L74.035,79.439L65.07,91.324L54.191,72.791L39.687,37.536L33.441,-1.949L30.218,-25.116L25.786,-41.232L16.52,-51.305L22.311,-72.521L9.065,-79.508L-1.41,-92.603" style="fill:rgb(207,183,133);fill-rule:nonzero;"/>
        </g>
        <g transform="matrix(1,0,0,1,339.462,311.758)">
            <path d="M0,-40.854C-1.611,-43.876 -6.85,-50.927 -6.85,-50.927C-6.85,-50.927 2.216,-52.941 11.281,-45.891C7.454,-56.567 -4.634,-63.165 -4.634,-63.165C-4.634,-63.165 8.26,-65.848 18.131,-60.597C6.8,-76.37 -9.099,-82.513 -25.955,-83.258C-24.839,-87.843 -20.957,-103.6 -19.412,-107.375C-24.449,-106.973 -31.902,-104.757 -33.515,-101.735C-34.812,-99.303 -38.326,-87.347 -39.648,-82.773C-40.724,-82.657 -41.8,-82.523 -42.875,-82.375C-41.364,-88.511 -38.219,-101.006 -36.866,-104.312C-41.902,-103.909 -49.356,-101.693 -50.968,-98.671C-52.283,-96.206 -55.876,-83.955 -57.155,-79.526C-58.576,-79.161 -59.988,-78.775 -61.389,-78.372C-59.889,-84.34 -56.784,-96.315 -54.997,-100.484C-60.638,-99.477 -66.077,-96.858 -68.897,-93.434C-71.071,-90.793 -75.997,-78.223 -78.14,-72.599C-94.159,-66.205 -106.884,-58.71 -111.807,-55.395C-111.329,-51.466 -106.166,-48.358 -106.166,-48.358C-106.166,-48.358 -100.123,-44.682 -91.662,-42.466C-92.87,-38.839 -93.676,-32.796 -92.064,-20.8C-72.318,-5.291 -65.069,52.255 -34.65,66.521C-38.679,61.686 -31.356,47.584 -36.463,32.475C-28.002,38.116 -6.85,39.728 5.843,38.922C13.296,29.252 10.274,3.667 6.044,-11.24C9.469,-10.032 12.894,-6.808 17.124,-1.974C13.296,-20.708 -5.842,-40.854 -5.842,-40.854C-5.842,-40.854 -2.491,-41.338 0,-40.854" style="fill:white;fill-rule:nonzero;"/>
        </g>
        <g transform="matrix(1,0,0,1,353.212,345.442)">
            <path d="M0,-115.905C7.34,-109.949 19.673,-92.014 22.493,-85.97C20.378,-86.978 15.898,-86.023 15.898,-86.023C22.345,-72.526 34.693,-37.096 33.136,-2.23L41.65,0L48.499,-1.007L35.808,-59.429L28.757,-76.15L37.017,-74.941L26.138,-96.698L9.015,-113.822L0,-115.905Z" style="fill:rgb(186,12,47);fill-rule:nonzero;"/>
        </g>
        <g transform="matrix(1,0,0,1,214.46,292.712)">
            <path d="M0,-37.32L-28.103,-29.161L-52.277,-16.923L-48.5,-11.181L-30.671,-11.181L-8.764,-9.066L21.757,0.755L26.44,-19.051L14.051,-25.081L2.417,-38.075L0,-37.32Z" style="fill:rgb(186,12,47);fill-rule:nonzero;"/>
        </g>
        <g transform="matrix(1,0,0,1,283.961,164.619)">
            <path d="M0,266.038C-23.57,240.051 -29.916,181.579 -31.729,164.656C-33.313,149.873 -38.011,136.129 -45.922,128.962C-45.049,123.653 -43.276,114.383 -40.794,108.904C-45.629,106.335 -57.387,102.674 -64.578,89.396C-58.333,85.221 -45.974,76.965 -38.528,72.038C-26.441,44.539 1.36,28.372 8.461,15.832C8.782,18.457 8.31,21.8 5.439,28.222C14.807,21.121 30.671,12.508 36.413,1.025C37.546,2.461 38.415,8.278 37.207,12.772C41.965,8.504 45.441,6.087 51.371,3.896C46.385,8.429 41.399,33.057 41.55,51.338L49.31,53.737C75.303,63.625 96.441,90.185 101.533,102.709C101.533,102.709 97.907,101.5 93.676,102.256C103.043,124.919 109.491,147.785 112.865,176.895C83.402,178.406 19.792,216.48 0,266.038M-104.857,114.645C-104.857,114.645 -69.955,110.264 -49.709,110.868C-55.148,108.602 -94.885,104.975 -116.491,110.868C-105.468,103.803 -90.224,98.555 -68.467,91.907C-68.467,91.907 -68.338,91.864 -68.09,91.745C-65.958,95.213 -58.583,105.863 -45.78,110.74C-47.431,114.376 -48.897,122.807 -49.462,126.339C-49.494,126.32 -49.525,126.298 -49.558,126.279C-59.681,120.387 -91.107,113.89 -104.857,114.645M101.231,108.098C101.231,108.098 110.699,111.687 113.922,116.12C112.216,110.026 95.261,63.181 51.698,51.069C51.674,51.061 51.653,51.053 51.629,51.044C42.989,48.106 53.285,2.939 66.581,-9.148C62.955,-9.148 52.881,-5.925 43.615,2.939C45.226,-0.687 44.42,-9.551 39.585,-20.027C39.585,-20.027 29.11,4.551 15.814,15.832C15.814,15.832 20.649,6.565 13.8,-1.493C12.994,8.983 -30.923,42.021 -41.247,69.688C-41.247,69.688 -41.249,69.694 -41.25,69.695C-50.707,75.021 -59.087,80.294 -69.617,87.999C-112.613,97.723 -136.082,118.171 -136.082,118.171C-136.082,118.171 -50.263,113.336 -39.787,145.972C-29.312,178.607 -41.399,220.274 2.921,286.065C19.038,221.718 87.129,183.039 122.584,182.636C119.966,145.468 101.231,108.098 101.231,108.098" style="fill:rgb(4,30,66);fill-rule:nonzero;"/>
        </g>
        <g transform="matrix(0.894427,0.447214,0.447214,-0.894427,329.704,284.618)">
            <path d="M-5.964,-2.739L3.045,-2.739L15.028,-23.551L-6.054,-11.118L-5.964,-2.739Z" style="fill:rgb(4,30,66);fill-rule:nonzero;"/>
        </g>
        <g transform="matrix(0.894427,0.447214,0.447214,-0.894427,315.199,312.217)">
            <path d="M-5.964,-2.739L3.045,-2.739L15.029,-23.551L-6.054,-11.118L-5.964,-2.739Z" style="fill:rgb(4,30,66);fill-rule:nonzero;"/>
        </g>
        <g transform="matrix(0.894427,0.447214,0.447214,-0.894427,285.585,303.958)">
            <path d="M-5.964,-2.739L3.045,-2.739L15.028,-23.551L-6.054,-11.118L-5.964,-2.739Z" style="fill:rgb(4,30,66);fill-rule:nonzero;"/>
        </g>
        <g transform="matrix(1,0,0,1,237.68,277.15)">
            <path d="M0,-12.591C4.035,-10.945 13.646,-12.089 19.287,-18.334C24.928,-24.579 28.353,-30.219 36.31,-31.428C47.179,-33.079 60.182,-18.887 81.637,-20.787C81.637,-20.787 60.887,-18.334 54.34,-11.887C52.426,-19.542 48.599,-28.003 39.533,-27.197C30.468,-26.392 35.829,-8.712 36.713,-3.489C34.094,-10.88 8.558,-8.939 8.835,3.588C9.361,10.895 13.566,17.311 14.967,19.202L7.905,20.488L6.293,10.339L6.495,-3.099" style="fill:rgb(207,183,133);fill-rule:nonzero;"/>
        </g>
        <g transform="matrix(0,-1,-1,0,277.212,248.592)">
            <path d="M-14.807,-14.807C-22.985,-14.807 -29.614,-8.178 -29.614,-0C-29.614,8.177 -22.985,14.807 -14.807,14.807C-6.63,14.807 -0,8.177 -0,-0C-0,-8.178 -6.63,-14.807 -14.807,-14.807" style="fill:rgb(4,30,66);fill-rule:nonzero;"/>
        </g>
        <g transform="matrix(0,-1,-1,0,281.846,252.436)">
            <path d="M-3.927,-3.929C-6.098,-3.929 -7.856,-2.17 -7.856,-0.001C-7.856,2.169 -6.098,3.927 -3.927,3.927C-1.758,3.927 0.001,2.169 0.001,-0.001C0.001,-2.17 -1.758,-3.929 -3.927,-3.929" style="fill:white;fill-rule:nonzero;"/>
        </g>
        <g transform="matrix(1,0,0,1,230.335,269.292)">
            <path d="M0,-14.656C0,-14.656 2.233,-2.406 15.49,-3.218L17.465,0L8.732,-0.806L0,-5.893L-5.904,-14.656" style="fill:rgb(207,183,133);fill-rule:nonzero;"/>
        </g>
    </g>
</svg>
